<?xml version="1.0" encoding="UTF-8"?><svg id="Layer_1" xmlns="http://www.w3.org/2000/svg" viewBox="0 0 216.13 33.21"><defs><style>.cls-1{fill:#fff;}</style></defs><path class="cls-1" d="M0,32.26H25.14V0H0V32.26ZM7.22,12.35V30.92h-2.27V8.73l2.27,3.61Zm1.34,11.79h8.03v2.27H8.55v-2.27Zm8.03-1.34H8.55v-2.27h8.03v2.27Zm0-3.61h-2.96l2.96-4.71v4.71Zm-8.03,0v-4.71l2.96,4.71h-2.96Zm0,8.55h8.03v3.18H8.55v-3.18Zm9.37-15.4l2.27-3.61V30.92h-2.27V12.34Zm-1.32-.42h-.02v.03l-4.02,6.39-4.02-6.39v-.03h-.02L1.88,1.34h2.81l7.88,12.54L20.45,1.34h2.81l-6.66,10.59Zm-4.04-5.06l3.47-5.53h2.83l-6.3,10.03L6.27,1.34h2.83l3.47,5.53Zm-1.89-5.53h3.78l-1.89,3.01-1.89-3.01ZM1.34,2.99l2.27,3.61V30.92H1.34V2.99ZM21.53,30.92V6.6l2.27-3.61V30.92h-2.27Z"/><g><g><path class="cls-1" d="M128.56,13.61c-1.1,1-2.43,1.27-3.33,1.27-2.12,0-3.48-1.14-3.48-2.89s1.51-2.68,2.84-3.28c-1.02-1.19-1.61-2.17-1.61-3.25,0-1.8,1.51-2.82,3.33-2.82,1.5,0,2.8,.87,2.8,2.29,0,.95-.54,2.04-2.53,2.87l3.16,3.84c.25-.44,.66-1.19,.87-1.77,.27-.88,0-1.5-1.61-1.7v-.27h3.99v.27c-1.36,.17-1.56,.61-1.9,1.49-.36,.99-.76,1.75-1.09,2.28l1.38,1.68c.37,.46,.7,.7,1.21,.8v.27h-3.07l-.93-1.1Zm-3.74-4.62c-.51,.51-.98,1.56-.98,2.65,0,1.55,.82,2.57,2.19,2.57,.76,0,1.63-.29,2.28-.9l-3.48-4.31Zm1.65-5.91c-.87,0-1.36,.83-1.36,1.63,0,1.1,.39,1.78,1.24,2.82,1.12-.78,1.53-1.75,1.53-2.6,0-1.1-.42-1.85-1.41-1.85"/><polygon class="cls-1" points="36.88 2.82 39.56 2.82 39.56 7.78 44.95 7.78 44.95 2.82 47.63 2.82 47.63 14.71 44.95 14.71 44.95 10.02 39.56 10.02 39.56 14.71 36.88 14.71 36.88 2.82"/><path class="cls-1" d="M62.43,3.43c.97,.53,1.74,1.27,2.3,2.2,.56,.93,.84,1.97,.84,3.12s-.28,2.19-.84,3.13c-.56,.94-1.33,1.68-2.3,2.22-.97,.54-2.06,.81-3.25,.81s-2.27-.27-3.24-.81c-.97-.54-1.74-1.27-2.3-2.21-.56-.93-.84-1.98-.84-3.13s.28-2.18,.84-3.12c.56-.94,1.33-1.67,2.29-2.2,.97-.53,2.05-.8,3.25-.8s2.27,.27,3.25,.8m-5.05,2.05c-.57,.33-1.01,.79-1.34,1.37-.33,.58-.49,1.21-.49,1.9s.17,1.34,.5,1.92c.33,.58,.78,1.04,1.34,1.38s1.17,.51,1.83,.51,1.26-.17,1.81-.5c.55-.33,.99-.79,1.31-1.38,.32-.58,.48-1.23,.48-1.93s-.16-1.33-.48-1.9c-.32-.58-.76-1.03-1.31-1.37-.55-.33-1.15-.5-1.81-.5s-1.27,.17-1.83,.5"/><polygon class="cls-1" points="70.74 2.82 73.73 2.82 77.43 10.13 81.1 2.82 84.08 2.82 84.08 14.71 81.66 14.71 81.66 6.68 78.28 13.51 76.55 13.51 73.15 6.68 73.15 14.71 70.74 14.71 70.74 2.82"/><polygon class="cls-1" points="90.11 2.82 99.17 2.82 99.17 5.04 92.79 5.04 92.79 7.63 98.52 7.63 98.52 9.85 92.79 9.85 92.79 12.49 99.35 12.49 99.35 14.71 90.11 14.71 90.11 2.82"/><path class="cls-1" d="M110.75,5.24c-.69-.22-1.27-.33-1.76-.33s-.83,.08-1.1,.25c-.27,.17-.41,.42-.41,.75,0,.42,.2,.74,.59,.96,.39,.22,.99,.45,1.81,.69,.82,.24,1.49,.48,2.01,.71,.53,.24,.98,.59,1.35,1.07s.56,1.1,.56,1.89-.2,1.41-.6,1.96c-.4,.55-.96,.97-1.66,1.25-.7,.28-1.5,.42-2.4,.42-.96,0-1.91-.17-2.84-.51-.93-.34-1.73-.81-2.41-1.39l1.07-2.19c.6,.54,1.29,.98,2.07,1.31,.78,.33,1.5,.49,2.14,.49,.55,0,.99-.1,1.3-.31,.31-.2,.47-.5,.47-.88,0-.31-.1-.56-.31-.76-.21-.2-.48-.36-.8-.48-.32-.12-.77-.27-1.33-.42-.82-.23-1.48-.45-2-.68-.52-.23-.96-.57-1.33-1.04-.37-.46-.56-1.08-.56-1.85,0-.71,.19-1.34,.58-1.88,.39-.54,.92-.95,1.61-1.24,.69-.29,1.5-.43,2.41-.43,.82,0,1.62,.12,2.41,.36,.79,.24,1.5,.56,2.11,.95l-1.04,2.23c-.61-.37-1.26-.67-1.95-.89"/><polygon class="cls-1" points="139.16 2.82 142.05 2.82 145.3 11.79 148.56 2.82 151.33 2.82 146.6 14.71 143.83 14.71 139.16 2.82"/><rect class="cls-1" x="156.15" y="2.82" width="2.68" height="11.89"/><polygon class="cls-1" points="164.99 2.82 167.67 2.82 167.67 12.37 172.77 12.37 172.77 14.71 164.99 14.71 164.99 2.82"/><polygon class="cls-1" points="177.88 2.82 180.57 2.82 180.57 12.37 185.67 12.37 185.67 14.71 177.88 14.71 177.88 2.82"/><path class="cls-1" d="M199.63,14.71l-.93-2.31h-5.51l-.93,2.31h-2.77l5.17-11.89h2.77l5.08,11.89h-2.87Zm-5.56-4.47h3.76l-1.87-4.62-1.89,4.62Z"/><path class="cls-1" d="M213.08,5.24c-.69-.22-1.27-.33-1.76-.33s-.83,.08-1.1,.25c-.27,.17-.41,.42-.41,.75,0,.42,.2,.74,.59,.96,.39,.22,.99,.45,1.81,.69,.82,.24,1.49,.48,2.01,.71,.53,.24,.98,.59,1.35,1.07,.37,.48,.56,1.1,.56,1.89s-.2,1.41-.6,1.96c-.4,.55-.96,.97-1.66,1.25-.7,.28-1.5,.42-2.4,.42-.96,0-1.91-.17-2.84-.51-.93-.34-1.73-.81-2.41-1.39l1.07-2.19c.6,.54,1.29,.98,2.07,1.31,.78,.33,1.5,.49,2.14,.49,.55,0,.99-.1,1.3-.31,.31-.2,.47-.5,.47-.88,0-.31-.1-.56-.31-.76-.21-.2-.48-.36-.8-.48-.32-.12-.77-.27-1.33-.42-.82-.23-1.48-.45-2-.68-.52-.23-.96-.57-1.33-1.04-.37-.46-.56-1.08-.56-1.85,0-.71,.19-1.34,.58-1.88,.39-.54,.92-.95,1.61-1.24,.69-.29,1.5-.43,2.41-.43,.82,0,1.62,.12,2.41,.36,.79,.24,1.5,.56,2.11,.95l-1.04,2.23c-.61-.37-1.26-.67-1.95-.89"/></g><g><g><path class="cls-1" d="M99.19,29.76c-1.5,0-2.71-1.22-2.71-2.71s1.22-2.71,2.71-2.71,2.71,1.22,2.71,2.71-1.22,2.71-2.71,2.71m0-6.76c-2.23,0-4.04,1.81-4.04,4.04s1.81,4.04,4.04,4.04,4.04-1.81,4.04-4.04-1.81-4.04-4.04-4.04"/><polygon class="cls-1" points="169.97 23.16 167.71 26.38 165.45 23.16 163.9 23.16 167.03 27.58 167.03 30.93 168.39 30.93 168.39 27.58 168.4 27.58 171.52 23.16 169.97 23.16"/><path class="cls-1" d="M124.85,24.29h2.29c.63,0,1.15,.46,1.15,1.03s-.52,1.03-1.15,1.03h-2.29v-2.06Zm4.17,2.6l-.11-.08,.09-.09c.37-.39,.58-.89,.58-1.4,0-1.2-1.1-2.17-2.45-2.17h-3.65v7.78h3.86c1.43,0,2.59-1.03,2.59-2.29,0-.67-.33-1.31-.92-1.75m-1.68,2.9h-2.5v-2.31h2.5c.71,0,1.3,.52,1.3,1.16s-.58,1.15-1.3,1.15"/><polygon class="cls-1" points="152.63 28.34 150.38 23.16 148.89 23.16 152.32 30.93 152.95 30.93 156.38 23.16 154.88 23.16 152.63 28.34"/><path class="cls-1" d="M135.36,29.76c-1.5,0-2.71-1.22-2.71-2.71s1.22-2.71,2.71-2.71,2.71,1.22,2.71,2.71-1.22,2.71-2.71,2.71m0-6.76c-2.23,0-4.04,1.81-4.04,4.04s1.81,4.04,4.04,4.04,4.04-1.81,4.04-4.04-1.81-4.04-4.04-4.04"/><polygon class="cls-1" points="146.12 28.17 141.7 23.16 141.03 23.16 141.03 30.93 142.38 30.93 142.38 25.92 146.8 30.93 147.48 30.93 147.48 23.16 146.12 23.16 146.12 28.17"/><rect class="cls-1" x="156.87" y="29.8" width="6.83" height="1.14"/><path class="cls-1" d="M160.28,27.28c-.86,0-1.56-.7-1.56-1.56s.7-1.56,1.56-1.56,1.56,.7,1.56,1.56-.7,1.56-1.56,1.56m0-4.28c-1.5,0-2.71,1.22-2.71,2.71s1.22,2.71,2.71,2.71,2.71-1.22,2.71-2.71-1.22-2.71-2.71-2.71"/><polygon class="cls-1" points="54.79 30.93 54.79 23.16 56.35 23.16 58.81 27.58 61.28 23.16 62.83 23.16 62.83 30.93 61.48 30.93 61.48 25.43 59.31 29.42 58.32 29.42 56.15 25.43 56.15 30.93 54.79 30.93"/><path class="cls-1" d="M67.32,28.26l1.24-2.67,1.24,2.67h-2.48Zm1.56-5.11h-.64s-3.6,7.78-3.6,7.78h1.45s.7-1.52,.7-1.52h3.55l.7,1.52h1.45s-3.6-7.78-3.6-7.78Z"/><path class="cls-1" d="M75.61,24.29h2.5c.72,0,1.3,.52,1.3,1.15s-.58,1.16-1.3,1.16h-2.5v-2.31Zm2.87,3.42c1.25-.16,2.22-1.11,2.22-2.27,0-1.26-1.16-2.29-2.59-2.29h-3.86v7.78h1.36v-3.19h1.34l2.2,3.19h0s1.55,0,1.55,0l-2.22-3.22Z"/><path class="cls-1" d="M84.3,24.29h2.5c.72,0,1.3,.52,1.3,1.15s-.58,1.16-1.3,1.16h-2.5v-2.31Zm2.87,3.42c1.25-.16,2.22-1.11,2.22-2.27,0-1.26-1.16-2.29-2.59-2.29h-3.86v7.77h1.36v-3.19h1.34l2.2,3.19h0s1.55,0,1.55,0l-2.22-3.22Z"/><rect class="cls-1" x="91.69" y="23.16" width="1.36" height="7.78"/><polygon class="cls-1" points="110.22 23.16 104.21 23.16 104.21 24.4 106.54 24.4 106.54 30.93 107.9 30.93 107.9 24.4 110.22 24.4 110.22 23.16"/><polygon class="cls-1" points="117.58 23.16 111.57 23.16 111.57 24.4 113.9 24.4 113.9 30.93 115.25 30.93 115.25 24.4 117.58 24.4 117.58 23.16"/><path class="cls-1" d="M172.74,24.73c-.11,0-.21-.02-.31-.06-.1-.04-.18-.1-.25-.17-.07-.07-.13-.15-.17-.25-.04-.1-.06-.2-.06-.31s.02-.21,.06-.31c.04-.1,.1-.18,.17-.25,.07-.07,.15-.13,.25-.17,.1-.04,.2-.06,.31-.06s.21,.02,.31,.06c.1,.04,.18,.1,.25,.17,.07,.07,.13,.15,.17,.25,.04,.1,.06,.2,.06,.31s-.02,.21-.06,.31c-.04,.1-.1,.18-.17,.25-.07,.07-.16,.13-.25,.17s-.2,.06-.31,.06m0-.15c.09,0,.17-.02,.25-.05,.08-.03,.14-.08,.2-.14,.06-.06,.1-.13,.13-.2,.03-.08,.05-.16,.05-.25s-.01-.17-.05-.25c-.03-.08-.07-.15-.13-.2-.05-.06-.12-.1-.2-.14-.07-.03-.16-.05-.24-.05s-.17,.02-.25,.05c-.08,.03-.14,.08-.2,.14-.06,.06-.1,.13-.13,.2-.03,.08-.05,.16-.05,.25s.01,.17,.05,.25c.03,.08,.07,.15,.13,.2,.06,.06,.12,.1,.2,.14,.08,.03,.16,.05,.25,.05m-.27-1.04h.31s.09,0,.13,.02c.03,.01,.06,.03,.09,.06,.02,.02,.04,.05,.05,.08,.01,.03,.02,.05,.02,.08,0,.05-.01,.1-.04,.14-.03,.04-.07,.07-.12,.09l.2,.33h-.17l-.18-.31h-.13v.31h-.15v-.8Zm.3,.37s.08-.01,.1-.03c.02-.02,.03-.05,.03-.09s-.01-.07-.03-.09c-.02-.02-.06-.03-.11-.03h-.14v.24h.15Z"/></g><g><path class="cls-1" d="M38.07,30.34v.58h-1.2v-7.76h1.28v2.86c.3-.31,.92-.6,1.65-.6,1.42,0,2.63,1.11,2.63,2.81s-1.22,2.81-2.68,2.81c-.83,0-1.35-.31-1.67-.69Zm3.08-2.12c0-.96-.68-1.6-1.54-1.6s-1.54,.63-1.54,1.6,.68,1.6,1.54,1.6,1.54-.63,1.54-1.6Z"/><path class="cls-1" d="M45.53,30.23l-2.18-4.7h1.44l1.46,3.25,1.56-3.25h1.39l-3.76,7.67h-1.38l1.46-2.97Z"/></g></g></g></svg>