<svg id="Layer_1" data-name="Layer 1" xmlns="http://www.w3.org/2000/svg" viewBox="0 0 78 78"><defs><style>.cls-1{fill:#231f20;}</style></defs><title>HVMI_icons</title><path class="cls-1" d="M39,.21A38.79,38.79,0,1,0,77.79,39,38.83,38.83,0,0,0,39,.21Zm31.55,44.9,3,9.17A38.11,38.11,0,0,1,69.7,61l-4-12.32Zm.85-.62,5.35-3.9a37.45,37.45,0,0,1-2.61,12.28Zm5.38-5.17L65.33,47.68l-2-6.2,12.84-9.37A38.05,38.05,0,0,1,76.79,39C76.79,39.11,76.78,39.21,76.78,39.32ZM10.28,54.9,2.66,49.33A37.47,37.47,0,0,1,1.25,40.6l11.06,8.08Zm-.33,1L8.29,61a37.43,37.43,0,0,1-5.14-10ZM1.22,39.34c0-.11,0-.23,0-.34a38,38,0,0,1,.64-6.88L20.37,45.64l-2,6.2ZM50.81,3.11A37.7,37.7,0,0,1,61.39,8.58H52.58Zm3.06,12.67h-6L43.21,1.45a37.18,37.18,0,0,1,6.43,1.29ZM73.22,23h-23l-2-6.2H69.54A37.51,37.51,0,0,1,73.22,23ZM45.5,30.19l-2-6.21H73.67a36.5,36.5,0,0,1,2.07,6.21ZM49.15,23h-6L39.52,11.79l3-9.24ZM39,13.41l5.67,17.43a.49.49,0,0,0,.47.35H63.47L48.63,42a.51.51,0,0,0-.18.56L54.12,60,39.28,49.19a.48.48,0,0,0-.58,0L23.86,60l5.67-17.43a.5.5,0,0,0-.18-.56L14.51,31.19H32.85a.48.48,0,0,0,.47-.35ZM40.3,58.27l4.88-3.56,9.46,6.87,3,9.27ZM13.14,30.19,4.6,24H27.41l-2,6.21ZM27.73,23h-6L28.3,2.76a37.76,37.76,0,0,1,6.43-1.3ZM23,15.78H17l3.07-9.46a37.56,37.56,0,0,1,7.07-3.19Zm-.33,1-2,6.2H4.78a37.51,37.51,0,0,1,3.68-6.2Zm5.78,25.78-2,6.26L2.06,31A38.82,38.82,0,0,1,4,24.78Zm-7.25,3.7,4.89,3.56L22.49,61l-8,5.8Zm17.77,4,5.34,3.88L20.15,71.73a37.47,37.47,0,0,1-5.48-3.85Zm.46,8.68,5.28,3.83L27.78,75.09a37.78,37.78,0,0,1-6.67-2.81Zm.44,8.6,5.24,3.79-7.5,5.48A37.72,37.72,0,0,1,29,75.44ZM46,71.9l4.35,3.15a37.67,37.67,0,0,1-11.05,1.73Zm-5.25-5,4.84-3.54L57.47,72a37.87,37.87,0,0,1-6,2.71Zm8.78-24.31L54.39,39l9.33,28.53a38.13,38.13,0,0,1-4.91,3.62Zm5.72-4.15,9.93-7.22H75.71L57.28,44.64ZM68.78,15.78H54.92l-2-6.2h9.77A38.06,38.06,0,0,1,68.78,15.78ZM41.86,1.33,32.49,30.19H26.44L35.81,1.35c1.06-.09,2.12-.14,3.19-.14S40.92,1.26,41.86,1.33ZM18.75,7.12l-2.82,8.66H9.22A37.83,37.83,0,0,1,18.75,7.12ZM9,62,13.16,49.3,18,52.84l-4.58,14A37.55,37.55,0,0,1,9,62Zm55.52,4.86L57.61,45.64l4.85-3.54L69,62A39.07,39.07,0,0,1,64.54,66.83Z"/></svg>