<?xml version="1.0" encoding="utf-8"?>
<!-- Generator: Adobe Illustrator 21.1.0, SVG Export Plug-In . SVG Version: 6.00 Build 0)  -->
<svg version="1.1" id="Layer_1" xmlns="http://www.w3.org/2000/svg" xmlns:xlink="http://www.w3.org/1999/xlink" x="0px" y="0px"
	 viewBox="0 0 78 78" style="enable-background:new 0 0 78 78;" xml:space="preserve">
<style type="text/css">
	.st0{fill:#221F1F;}
</style>
<path class="st0" d="M77.7,39c0-21.4-17.4-38.8-38.8-38.8C17.5,0.2,0.1,17.6,0.1,39c0,21.4,17.4,38.8,38.8,38.8
	c21,0,38.1-16.8,38.8-37.7l0,0l0,0C77.7,39.8,77.7,39.4,77.7,39C77.7,39,77.7,39,77.7,39z M75,27.9L36.6,1.3c0.7,0,1.5-0.1,2.3-0.1
	C55.9,1.3,70.2,12.4,75,27.9z M67.3,63.7v-8c1.7,0.4,3.3,0.8,4.8,1.3c-1.3,2.4-2.9,4.7-4.7,6.8C67.4,63.7,67.4,63.7,67.3,63.7z
	 M67.3,54.6V34.2l9.3,6.5c-0.2,5.5-1.7,10.7-4,15.4C70.9,55.5,69.2,55,67.3,54.6z M66.3,63.4c-2-0.6-4.3-1.1-7-1.6V39
	c0-0.2-0.1-0.3-0.2-0.4L35.7,21.9l6.9-4.9l23.7,16.4V63.4z M9.5,28.6l-5.5-3.9c1.1-2.8,2.6-5.4,4.4-7.8l8.9,6.3L9.5,28.6z M8.6,29.2
	l-7.2,5c0.4-3,1.1-5.8,2.1-8.5L8.6,29.2z M34.3,32.3L34.3,32.3L19.1,43l-0.1-9.2l15.4-10.9V32.3z M18.3,61.5c-3.8,0.7-6.5,1.4-8.2,2
	c-1.8-2.1-3.4-4.4-4.7-6.9c4.1-1.4,8.4-2.3,12.7-2.9L18.3,61.5z M19.3,61.3l-0.2-17.1l7.3-5.1v21.4C23.7,60.7,21.3,61,19.3,61.3z
	 M27.3,38.4l7-5V60c-2.5,0.1-4.9,0.2-7,0.4L27.3,38.4L27.3,38.4z M35.3,33.8l6.9,4.8V60C41.2,60,40,60,38.9,60c-1.2,0-2.4,0-3.5,0
	V33.8z M43.3,39.3l7.1,4.9v16.3c-2.2-0.2-4.6-0.4-7.1-0.5V39.3z M51.1,43.5l-15.8-11v-9.7l23,16.4v22.3c-2.1-0.4-4.5-0.7-7-1V44
	C51.3,43.8,51.2,43.6,51.1,43.5z M18.9,32.6l-0.1-9.2L35.2,12l6.5,4.5L18.9,32.6z M27,16.4L16.2,8.8c2.4-1.8,5-3.3,7.8-4.5l10.3,7.1
	L27,16.4z M15.4,9.4L26.1,17l-8,5.6l0,0l-9.2-6.5C10.8,13.6,13,11.4,15.4,9.4z M1.3,35.4L1.3,35.4L17.8,24l0.4,28.7
	c-4.5,0.5-8.9,1.5-13.2,3C2.5,50.7,1.1,45,1.1,39C1.1,37.8,1.2,36.6,1.3,35.4z M18,70.5c6.9-1.2,13.9-1.7,20.9-1.6
	c6.9,0,13.8,0.6,20.6,1.9c-5.9,3.8-13,6.1-20.6,6.1C31.2,76.8,24,74.5,18,70.5z M60.6,69.9c-7.2-1.4-14.5-2.1-21.8-2.1
	c-7.4-0.1-14.8,0.5-22,1.8c-2.2-1.6-4.2-3.3-6-5.3c3.9-1.3,12.3-3.4,28-3.4c12.8,0,22.1,1.9,27.9,3.6C64.9,66.6,62.9,68.4,60.6,69.9
	z M25.2,3.8c3.1-1.2,6.4-2,9.9-2.4l40.3,27.9l0,0c0.8,3.1,1.3,6.4,1.3,9.7c0,0.1,0,0.3,0,0.4L25.2,3.8z"/>
</svg>
