<svg id="Layer_1" data-name="Layer 1" xmlns="http://www.w3.org/2000/svg" viewBox="0 0 78 78"><defs><style>.cls-1{fill:#231f20;}</style></defs><title>HVMI_icons</title><path class="cls-1" d="M71.64,59.92A38.75,38.75,0,0,0,44.21.57l0,0,0,0A39.46,39.46,0,0,0,39,.21,38.79,38.79,0,1,0,71.42,60.27L71.7,60Zm-.72-.72-8.84-8.84L76.65,35.8c.08,1.06.14,2.12.14,3.2A37.58,37.58,0,0,1,70.92,59.2ZM24.28,53.4l-.38.39a3.47,3.47,0,0,1-4.34-.35,3.37,3.37,0,0,1,0-4.77l14-14,4.78,4.77a.24.24,0,0,0-.08.06l-13.9,13.9h0ZM12.85,45.45a15,15,0,0,1,0-21.18A15.27,15.27,0,0,1,19,20.51l0,0,.08-.08a15.36,15.36,0,0,1,15.42,3.8l4.28,4.28.07.06L49.16,38.86a3.55,3.55,0,0,1,0,5,3.64,3.64,0,0,1-5,0L33.88,33.65a.5.5,0,0,0-.71,0L18.85,48a4.33,4.33,0,0,0-1.2,2.28Zm-.52-22.06-5-5a37.69,37.69,0,0,1,4.23-5.35l6.68,6.68A16.23,16.23,0,0,0,12.33,23.39Zm-.69.73a15.91,15.91,0,0,0-3.48,6.1L3.63,25.69a38.36,38.36,0,0,1,3.16-6.43ZM7.87,31.35A16,16,0,0,0,9.38,42.43l-7.9-7.89a37.33,37.33,0,0,1,1.78-7.8Zm31-13.8a.47.47,0,0,0,.35.14.46.46,0,0,0,.35-.14L53.14,4a38,38,0,0,1,6.3,3.28L39.2,27.48l-3.92-3.92L18.8,7.08a38.28,38.28,0,0,1,6.35-3.23ZM26.17,3.46a37.27,37.27,0,0,1,7.69-1.89l5,5a.49.49,0,0,0,.35.15.47.47,0,0,0,.35-.15l4.94-4.94a38.05,38.05,0,0,1,7.64,2L39.2,16.49ZM29.8,58.91h0l-.14.14A3.46,3.46,0,0,1,25,58.91a3.38,3.38,0,0,1,0-4.76L38.94,40.24l.05-.07,4.43,4.43c.12.12.27.22.4.33a.42.42,0,0,0-.12.08Zm-5.47.71a4.35,4.35,0,0,0,3.09,1.28c.13,0,.26,0,.4,0l-9.65,9.65a38.35,38.35,0,0,1-5.32-4.26L23.1,56a4.53,4.53,0,0,0-.05.53A4.33,4.33,0,0,0,24.33,59.62Zm4.23,1.91c0,.16,0,.31,0,.47a4.37,4.37,0,0,0,4.37,4.37c.16,0,.31,0,.46,0l-7.93,7.93A37.77,37.77,0,0,1,19,71.06ZM36,65.09l13.9-13.9a.5.5,0,0,0,0-.71.51.51,0,0,0-.71,0l-13.9,13.9a3.43,3.43,0,0,1-4.76,0,3.36,3.36,0,0,1,0-4.76l13.9-13.9a.49.49,0,0,0,.14-.32,4.44,4.44,0,0,0,2.09.53,4.56,4.56,0,0,0,3.23-7.78L40,28.26l4-4a14.86,14.86,0,0,1,10.59-4.39,15.06,15.06,0,0,1,4.14.59l.14.14.09-.08a15,15,0,0,1,6.22,24.92L49.81,60.79l-9.07,9.07a3.45,3.45,0,0,1-4.76,0,3.37,3.37,0,0,1,0-4.77ZM70.13,31.32l4.6-4.6a37.4,37.4,0,0,1,1.79,7.79l-7.84,7.84a15.84,15.84,0,0,0,1.45-11Zm-.28-1.13a15.93,15.93,0,0,0-3.5-6.09l4.85-4.85a36.89,36.89,0,0,1,3.16,6.43Zm-4.19-6.81a16,16,0,0,0-6-3.63L66.42,13a39.1,39.1,0,0,1,4.23,5.36ZM50.16,61.85l9.05,9.06a37.79,37.79,0,0,1-6.34,3.23l-7.5-7.5Zm.71-.7,4.79-4.8,9.69,9.7a37.61,37.61,0,0,1-5.27,4.3Zm5.5-5.5,4.79-4.79,9.2,9.2a37.56,37.56,0,0,1-4.3,5.28Zm9.36-43.34-7.11,7.11a16.08,16.08,0,0,0-11,1.07L60.3,7.8A37.9,37.9,0,0,1,65.73,12.31ZM43.24,1.45l-4,4L35.12,1.41A38.17,38.17,0,0,1,39,1.21,39.57,39.57,0,0,1,43.24,1.45ZM17.94,7.64,30.63,20.32a16.49,16.49,0,0,0-11.31-.94l-7.06-7.06A37.5,37.5,0,0,1,17.94,7.64ZM1.35,35.82,16.07,50.54l.23-.23,0,0-9.1,9.09A37.52,37.52,0,0,1,1.21,39C1.21,37.93,1.26,36.87,1.35,35.82ZM7.8,60.3,17,51.06l.59.58a4.32,4.32,0,0,0,4.31,3.79c.12,0,.23,0,.35,0L12.14,65.55A38.3,38.3,0,0,1,7.8,60.3ZM26.45,74.64,34,67.06c0,.14,0,.27,0,.41a4.37,4.37,0,0,0,7.46,3.09l3.21-3.21,7.19,7.19a37.76,37.76,0,0,1-25.4.1Z"/></svg>